<svg width="1875" height="998" viewBox="0 0 1875 998" fill="none" xmlns="http://www.w3.org/2000/svg">
<path d="M708.671 11.5993C685.338 47.5993 677.204 80.7993 684.271 110.666C688.004 126.399 700.938 147.066 712.938 156.666C716.538 159.466 719.871 162.266 720.538 162.799C721.204 163.466 717.738 168.133 712.538 173.599C684.004 203.599 668.004 247.066 665.871 300.666C664.804 323.333 666.404 335.599 672.671 354.399C690.671 408.133 730.938 449.866 785.338 471.333C808.538 480.533 821.871 483.733 858.271 489.066L865.204 489.999L918.804 541.333C948.271 569.599 972.804 592.666 973.471 592.666C974.004 592.666 998.804 568.933 1028.4 539.866L1082.4 487.066L1099.47 486.266C1150.54 483.999 1203.47 461.599 1233.47 429.733C1254.8 407.066 1270 377.466 1278.67 342.266C1288.14 303.599 1287.07 268.799 1275.34 235.999C1267.2 213.199 1247.6 180.799 1232.54 165.333L1228 160.533L1243.47 145.333C1252 136.799 1260.27 127.333 1262 123.999C1266.94 114.266 1268.4 103.466 1267.6 82.9326C1266.27 54.1326 1265.07 50.3993 1248.14 23.5993C1240.14 11.066 1233.07 0.799316 1232.54 0.932678C1231.87 1.06598 1206.14 16.1326 1175.34 34.266C1017.87 127.733 978.004 151.066 976.671 151.066C975.338 151.066 931.871 125.866 773.471 33.066C742.404 14.9327 716.804 -0.000671387 716.538 -0.000671387C716.404 -0.000671387 712.804 5.19934 708.671 11.5993ZM801.471 114.133C838.404 135.866 884.138 162.666 903.204 173.733C935.204 192.666 938.671 194.933 952.404 207.999C960.538 215.733 968.804 224.533 970.804 227.733L974.404 233.466L980.804 224.399C988.938 212.933 1005.47 196.666 1014.8 190.933C1018.8 188.533 1037.34 177.733 1056 166.799C1074.67 155.999 1118.14 130.666 1152.54 110.666C1208.4 78.266 1215.2 74.5327 1216.67 76.5327C1217.6 77.7327 1219.34 83.7327 1220.67 89.9993C1224.8 109.599 1221.6 125.066 1211.74 132.399C1209.34 134.133 1200.4 139.466 1192 144.266C1076 210.399 1036.27 233.999 1028.94 241.199C1006.8 262.533 995.204 294.933 998.671 325.333C1001.07 346.933 1006.14 357.066 1023.74 375.066C1051.2 403.333 1081.87 413.199 1115.07 404.533C1148.14 395.999 1179.47 366.399 1187.2 336.533C1190.14 324.933 1190 305.599 1186.67 292.799C1183.74 281.333 1177.47 266.399 1175.87 266.933C1175.34 267.199 1166.4 271.733 1156.14 277.199L1137.47 287.199L1138.4 291.199C1138.94 293.466 1139.34 302.799 1139.34 311.999C1139.34 328.266 1139.2 329.066 1134.94 337.599C1127.07 353.599 1113.6 361.999 1095.34 361.999C1086.14 361.999 1083.6 361.466 1076.94 358.133C1051.47 345.199 1040.54 320.666 1049.47 296.666C1054.8 282.399 1058.54 279.599 1124.67 240.133C1158 220.266 1186 203.733 1186.94 203.333C1189.2 202.399 1203.6 217.066 1212.27 228.933C1220.94 240.666 1230 259.066 1234 272.799C1242.4 301.599 1238.8 343.866 1225.47 373.733C1208.94 410.399 1170.4 443.466 1135.74 450.533C1116.54 454.533 1097.34 456.399 1081.07 455.733L1066.27 455.333L1020.27 502.133L974.138 549.066L926.404 502.266L878.538 455.333L858.938 455.733C836.404 456.266 820.404 453.733 801.204 446.799C765.071 433.599 735.204 403.999 717.871 364.133C711.338 348.933 709.338 339.866 708.404 321.333C707.071 293.199 711.604 269.999 722.671 247.333C730.538 231.333 739.871 218.666 750.671 209.333L758.671 202.399L774.404 211.599C881.738 274.666 880.404 273.866 889.471 282.666C900.138 293.199 903.204 300.666 902.404 314.399C902.138 321.199 900.804 325.733 897.071 333.599C892.938 342.399 891.071 344.666 884.004 349.866C868.004 361.733 849.604 365.199 836.004 359.066C813.204 348.799 799.338 316.799 806.138 289.866C806.804 287.333 804.671 285.199 791.338 275.199C773.338 261.733 774.938 261.466 768.004 278.399C762.404 291.599 760.004 303.466 760.004 317.999C760.004 345.333 771.471 366.666 796.138 385.199C829.738 410.533 861.204 414.533 895.204 397.866C916.004 387.733 930.271 373.733 940.004 353.999C949.338 335.199 951.338 320.133 947.471 299.733C942.804 276.266 934.404 260.799 916.804 243.333C904.804 231.333 903.871 230.666 836.004 191.066C798.271 169.066 760.804 147.199 752.671 142.666C735.338 132.666 729.871 127.999 726.271 120.133C723.204 113.199 722.804 100.533 725.338 92.5327C728.004 84.1327 732.271 74.666 733.338 74.666C733.871 74.666 764.538 92.3993 801.471 114.133Z" fill="white"/>
<path d="M970.938 443.2C967.738 447.866 955.071 460.4 946.271 467.466L941.338 471.6L954.271 483.333C961.471 489.866 968.938 496.666 971.071 498.533L974.671 501.866L989.871 486.8L1005.07 471.6L996.405 462.8C991.605 458 984.938 450.533 981.605 446.266C978.271 442.133 975.205 438.666 974.805 438.666C974.405 438.666 972.671 440.666 970.938 443.2Z" fill="white"/>
<path d="M798.804 21.8661C799.071 22.1327 838.938 45.8661 887.204 74.3994L975.071 126.399L1061.74 74.1327L1148.4 21.9994L1100.8 21.5994L1053.34 21.3327L1016.4 46.7994C996.271 60.7994 978.938 72.5327 978.004 72.7994C977.071 73.1994 956.138 61.7327 931.471 47.4661L886.671 21.3327H842.404C818.138 21.3327 798.538 21.5994 798.804 21.8661Z" fill="white"/>
<path d="M1417.34 674C1373.61 681.467 1339.61 701.333 1312.01 735.733C1295.07 756.667 1284.54 778.133 1277.47 805.6C1271.74 827.733 1270.27 843.2 1271.07 869.733C1271.61 888.667 1272.27 894.933 1275.21 906C1288.27 955.6 1322.81 986.533 1376.01 996.133C1392.27 999.067 1429.74 998.4 1446.27 994.8C1508.41 981.6 1556.01 938.533 1576.67 876.667C1584.54 853.333 1586.81 839.733 1587.61 812.667C1588.41 784 1586.67 770.133 1580.14 750.933C1568.14 716.267 1538.54 688.4 1502.67 678.267C1480.94 672 1440.54 670 1417.34 674ZM1466.94 733.333C1482.01 738.933 1494.14 754 1499.47 773.333C1503.07 786.267 1502.81 818.8 1498.94 836.4C1492.81 864.533 1484.27 884.4 1470.54 902.533C1451.34 928.133 1426.67 940.4 1402.41 936.4C1380.81 932.8 1366.81 920 1358.94 896.267C1355.74 886.933 1355.47 884.133 1355.47 864.667C1355.61 841.2 1357.74 827.733 1365.21 805.333C1378.41 766 1403.07 738.267 1431.07 731.2C1440.67 728.667 1457.47 729.733 1466.94 733.333Z" fill="white"/>
<path d="M1742.01 673.467C1706.81 678.267 1677.07 693.333 1658.41 715.733C1651.21 724.4 1643.07 741.467 1640.67 752.667C1634.94 780.267 1640.94 806.8 1656.94 824.133C1667.07 834.933 1678.14 841.733 1703.47 852.133C1730.01 863.067 1741.21 869.467 1749.74 878.533C1757.07 886.267 1758.67 889.867 1758.67 898.133C1758.67 913.467 1744.41 926.533 1720.67 932.8C1707.47 936.267 1676.67 936.267 1662.01 932.8C1649.34 929.867 1631.07 923.6 1622.41 919.2C1618.81 917.333 1616.01 916.267 1616.01 916.533C1616.01 916.933 1612.14 931.2 1607.34 948.267C1602.54 965.333 1598.67 979.733 1598.67 980.267C1598.67 982.133 1623.21 989.067 1642.27 992.667C1672.41 998.267 1716.81 999.2 1742.67 994.8C1792.94 986.133 1827.87 961.067 1841.34 924.133C1851.21 897.067 1849.87 866.133 1838.01 845.733C1827.87 828.533 1809.74 816.667 1754.27 790.933C1739.87 784.133 1734.14 779.867 1730.01 772.667C1721.74 758.667 1730.54 742.533 1749.87 736C1774.27 727.733 1816.27 730.8 1846.41 743.067C1852.41 745.6 1854.94 746.133 1855.47 744.933C1855.74 744 1860.14 730.267 1865.21 714.267L1874.41 685.333L1867.47 683.333C1855.34 679.867 1842.27 677.2 1828.01 675.2C1810.94 672.8 1754.81 671.6 1742.01 673.467Z" fill="white"/>
<path d="M481.738 834.666L389.604 990.666L433.738 990.399L477.871 989.999L496.404 956.933L514.938 923.999H576.005H636.938L640.538 954.266C642.538 971.066 644.405 985.999 644.805 987.599L645.338 990.666H686.671C709.471 990.666 728.005 990.533 728.005 990.266C728.005 990.133 716.671 920.133 702.938 834.666L677.871 679.333L625.871 678.933L574.005 678.666L481.738 834.666ZM623.338 803.199C627.338 836.799 630.671 864.533 630.671 864.799C630.671 865.066 611.871 865.333 588.805 865.333H546.938L581.071 803.333C599.871 769.333 615.338 741.599 615.605 741.866C615.871 742.133 619.338 769.733 623.338 803.199Z" fill="white"/>
<path d="M824.005 685.6C823.205 689.466 808.271 759.6 790.805 841.333L759.071 990L865.071 990.4C923.471 990.533 971.338 990.4 971.605 990.267C972.005 989.733 985.338 930.133 985.338 928.667C985.338 928.267 956.405 928 920.938 928H856.538L882.938 804.933C897.338 737.333 909.338 681.2 909.338 680.266C909.338 679.066 900.138 678.666 867.471 678.666H825.471L824.005 685.6Z" fill="white"/>
<path d="M1079.34 680.266C1078.8 681.999 1013.34 989.066 1013.34 990.133C1013.34 990.399 1061.2 990.666 1119.74 990.666H1226L1232.4 960.933C1235.87 944.666 1238.8 930.533 1238.67 929.599C1238.67 928.399 1224.94 927.999 1174.54 927.999H1110.4L1111.07 924.933C1111.47 923.333 1123.34 868.266 1137.34 802.666C1151.34 737.066 1163.07 682.266 1163.47 680.933C1164.14 678.799 1161.6 678.666 1122 678.666C1089.6 678.666 1079.74 679.066 1079.34 680.266Z" fill="white"/>
<path d="M5.60479 702.399C2.53813 714.666 -0.128539 725.066 0.0047948 725.599C0.0047948 726.266 14.1381 726.666 31.3381 726.666H62.6715L63.3381 723.599C65.2048 715.866 72.0048 682.533 72.0048 681.333C72.0048 680.533 61.0715 679.999 41.7381 679.999H11.3381L5.60479 702.399Z" fill="white"/>
<path d="M107.205 702.933L102.005 726L82.138 726.667L62.2713 727.333L57.8713 746C55.4713 756.267 53.4713 765.467 53.338 766.267C53.338 767.6 62.2713 768 94.0046 768C116.405 768 134.671 768.267 134.671 768.533C134.671 768.8 132.271 780.133 129.338 793.867C126.405 807.467 124.005 818.933 124.005 819.333C124.005 819.733 135.071 820 148.671 820C162.271 820 173.338 820.267 173.338 820.533C173.338 821.6 163.871 866 163.205 868.267C162.538 870.533 159.205 870.667 116.538 870.667C91.338 870.667 70.6713 870.4 70.6713 870.133C70.6713 869.6 82.2713 823.867 83.4713 819.6C84.138 817.467 82.0046 817.333 52.2713 817.333H20.2713L14.138 842.267C10.6713 856.133 7.60464 868.4 7.20464 869.6C6.53797 871.867 8.53797 872 36.538 872C53.0713 872 66.8046 872.4 67.0713 872.933C67.4713 873.6 66.0046 882.133 63.8713 892C61.738 901.867 60.0046 910.8 60.0046 911.6C60.0046 912.933 65.338 913.333 82.0046 913.333H104.005L103.338 916.267C100.671 928.133 88.0046 988.933 88.0046 990.267C88.0046 991.6 97.338 992 130.405 992H172.671L174.938 980.933C176.271 974.933 182.538 945.2 188.805 914.933L200.538 860H248.938C294.538 860 297.471 860.133 296.805 862.267C295.471 867.067 284.005 921.6 284.005 923.467C284.005 924.933 287.338 925.333 301.338 925.333C316.538 925.333 318.671 925.6 318.671 927.467C318.671 929.467 306.271 984 304.538 989.6C303.871 991.867 305.605 992 329.205 992C354.405 992 354.671 992 355.338 988.933C358.005 977.6 420.005 683.333 420.005 681.867C420.005 680.267 413.471 680 377.738 680.267L335.338 680.667L327.205 718.667C322.671 739.6 317.071 765.867 314.671 776.933L310.271 797.333H262.538C222.538 797.333 214.671 797.067 214.671 795.467C214.671 793.867 236.138 691.067 238.138 683.067L238.938 680H175.738H112.405L107.205 702.933Z" fill="white"/>
</svg>
